<svg width="142" height="142" viewBox="0 0 142 142" fill="none" xmlns="http://www.w3.org/2000/svg">
<path d="M82.17 3H84.67C84.67 1.61929 83.5507 0.5 82.17 0.5V3ZM60.33 3V0.5C58.9492 0.5 57.83 1.61929 57.83 3L60.33 3ZM82.17 13.0749H79.67C79.67 14.284 80.5352 15.3198 81.7249 15.535L82.17 13.0749ZM104.846 22.2123L103.461 24.2932C104.452 24.9534 105.772 24.8223 106.614 23.98L104.846 22.2123ZM111.788 15.2701L113.556 13.5024C113.087 13.0335 112.451 12.7701 111.788 12.7701C111.125 12.7701 110.489 13.0335 110.021 13.5023L111.788 15.2701ZM127.231 30.7133L128.999 32.4811C129.976 31.5048 129.976 29.9219 128.999 28.9456L127.231 30.7133ZM120.524 37.4207L118.756 35.653C117.895 36.5148 117.78 37.8726 118.485 38.8669L120.524 37.4207ZM130.288 60.3289L127.832 60.7945C128.056 61.9747 129.087 62.8289 130.288 62.8289V60.3289ZM139.5 60.3289H142C142 58.9482 140.881 57.8289 139.5 57.8289V60.3289ZM139.5 82.1689V84.6689C140.881 84.6689 142 83.5497 142 82.1689H139.5ZM130.289 82.1689V79.6689C129.087 79.6689 128.056 80.5233 127.832 81.7035L130.289 82.1689ZM120.523 105.08L118.484 103.634C117.779 104.628 117.893 105.986 118.755 106.848L120.523 105.08ZM127.232 111.789L129 113.557C129.976 112.58 129.976 110.997 129 110.021L127.232 111.789ZM111.789 127.232L110.021 129C110.997 129.976 112.58 129.976 113.556 129L111.789 127.232ZM111.789 127.232L113.556 125.464C112.58 124.488 110.997 124.488 110.021 125.464L111.789 127.232ZM111.788 127.232L110.021 129C110.997 129.976 112.58 129.976 113.556 129L111.788 127.232ZM104.845 120.288L106.612 118.52C105.77 117.678 104.451 117.547 103.459 118.207L104.845 120.288ZM82.17 129.424L81.7249 126.964C80.5352 127.179 79.67 128.215 79.67 129.424H82.17ZM82.17 139.5V142C83.5507 142 84.67 140.881 84.67 139.5H82.17ZM60.33 139.5H57.83C57.83 140.881 58.9492 142 60.33 142V139.5ZM60.33 129.424H62.83C62.83 128.215 61.9647 127.179 60.775 126.964L60.33 129.424ZM37.6563 120.289L39.0417 118.208C38.0502 117.548 36.7307 117.679 35.8885 118.521L37.6563 120.289ZM30.7115 127.233L28.9438 129.001C29.4126 129.47 30.0485 129.733 30.7115 129.733C31.3746 129.733 32.0105 129.47 32.4793 129.001L30.7115 127.233ZM15.2683 111.79L13.5006 110.022C12.5243 110.999 12.5243 112.582 13.5006 113.558L15.2683 111.79ZM21.9775 105.081L23.7452 106.849C24.6071 105.987 24.7218 104.629 24.0167 103.635L21.9775 105.081ZM12.2112 82.1689L14.6675 81.7035C14.4439 80.5233 13.4125 79.6689 12.2112 79.6689V82.1689ZM3 82.1689H0.5C0.5 83.5497 1.61929 84.6689 3 84.6689L3 82.1689ZM3 60.3289V57.8289C1.61929 57.8289 0.5 58.9482 0.5 60.3289H3ZM12.2115 60.3289V62.8289C13.4127 62.8289 14.4441 61.9747 14.6678 60.7945L12.2115 60.3289ZM21.9763 37.4198L24.0155 38.866C24.7206 37.8718 24.6059 36.514 23.744 35.6521L21.9763 37.4198ZM15.2683 30.7119L13.5006 28.9441C12.5243 29.9205 12.5243 31.5034 13.5006 32.4797L15.2683 30.7119ZM30.7116 15.2687L32.4793 13.5009C31.503 12.5246 29.9201 12.5246 28.9438 13.5009L30.7116 15.2687ZM30.7117 15.2688L28.9439 17.0366C29.9202 18.0129 31.5031 18.0129 32.4794 17.0366L30.7117 15.2688ZM30.7118 15.2687L32.4795 13.5009C31.5032 12.5246 29.9203 12.5246 28.944 13.5009L30.7118 15.2687ZM37.6547 22.2116L35.8869 23.9794C36.7291 24.8216 38.0487 24.9527 39.0401 24.2926L37.6547 22.2116ZM60.33 13.0749L60.775 15.535C61.9647 15.3198 62.83 14.284 62.83 13.0749L60.33 13.0749ZM82.17 0.5H60.33V5.5H82.17V0.5ZM84.67 13.0749V3H79.67V13.0749H84.67ZM106.232 20.1313C99.2372 15.4742 91.2346 12.1742 82.615 10.6149L81.7249 15.535C89.6596 16.9704 97.0239 20.0075 103.461 24.2932L106.232 20.1313ZM110.021 13.5023L103.078 20.4445L106.614 23.98L113.556 17.0379L110.021 13.5023ZM128.999 28.9456L113.556 13.5024L110.021 17.0379L125.464 32.4811L128.999 28.9456ZM122.292 39.1885L128.999 32.4811L125.464 28.9456L118.756 35.653L122.292 39.1885ZM132.745 59.8634C131.085 51.1058 127.547 43.0024 122.564 35.9746L118.485 38.8669C123.065 45.3254 126.31 52.7631 127.832 60.7945L132.745 59.8634ZM139.5 57.8289H130.288V62.8289H139.5V57.8289ZM142 82.1689V60.3289H137V82.1689H142ZM130.289 84.6689H139.5V79.6689H130.289V84.6689ZM122.562 106.526C127.547 99.4977 131.085 91.3932 132.745 82.6344L127.832 81.7035C126.31 89.736 123.065 97.1746 118.484 103.634L122.562 106.526ZM129 110.021L122.291 103.312L118.755 106.848L125.464 113.557L129 110.021ZM113.556 129L129 113.557L125.464 110.021L110.021 125.464L113.556 129ZM110.021 129L110.021 129L113.556 125.464L113.556 125.464L110.021 129ZM113.556 129L113.556 129L110.021 125.464L110.021 125.464L113.556 129ZM103.077 122.056L110.021 129L113.556 125.464L106.612 118.52L103.077 122.056ZM82.615 131.884C91.2339 130.325 99.2358 127.026 106.23 122.369L103.459 118.207C97.0226 122.492 89.6589 125.529 81.7249 126.964L82.615 131.884ZM84.67 139.5V129.424H79.67V139.5H84.67ZM60.33 142H82.17V137H60.33V142ZM57.83 129.424V139.5H62.83V129.424H57.83ZM36.2708 122.37C43.2648 127.026 51.2664 130.325 59.8849 131.884L60.775 126.964C52.8413 125.529 45.4779 122.493 39.0417 118.208L36.2708 122.37ZM32.4793 129.001L39.424 122.056L35.8885 118.521L28.9438 125.466L32.4793 129.001ZM13.5006 113.558L28.9438 129.001L32.4793 125.466L17.0361 110.022L13.5006 113.558ZM20.2097 103.313L13.5006 110.022L17.0361 113.558L23.7452 106.849L20.2097 103.313ZM9.75495 82.6344C11.4148 91.3936 14.9532 99.4985 19.9383 106.527L24.0167 103.635C19.4354 97.1753 16.1897 89.7364 14.6675 81.7035L9.75495 82.6344ZM3 84.6689H12.2112V79.6689H3V84.6689ZM0.5 60.3289V82.1689H5.5V60.3289H0.5ZM12.2115 57.8289H3V62.8289H12.2115V57.8289ZM19.937 35.9737C14.9529 43.0017 11.4151 51.1055 9.75521 59.8634L14.6678 60.7945C16.19 52.7628 19.4351 45.3248 24.0155 38.866L19.937 35.9737ZM13.5006 32.4797L20.2085 39.1876L23.744 35.6521L17.0361 28.9441L13.5006 32.4797ZM28.9438 13.5009L13.5006 28.9441L17.0361 32.4797L32.4793 17.0365L28.9438 13.5009ZM32.4794 13.501L32.4793 13.5009L28.9438 17.0365L28.9439 17.0366L32.4794 13.501ZM28.944 13.5009L28.9439 13.501L32.4794 17.0366L32.4795 17.0365L28.944 13.5009ZM39.4224 20.4438L32.4795 13.5009L28.944 17.0365L35.8869 23.9794L39.4224 20.4438ZM59.8849 10.6148C51.2657 12.1741 43.2635 15.4739 36.2692 20.1306L39.0401 24.2926C45.4768 20.0071 52.8407 16.9703 60.775 15.535L59.8849 10.6148ZM57.83 3V13.0749H62.83V3H57.83Z" fill="#0FB943"/>
<path d="M54 67.5009L68.5 82.5009L109.75 41.25" stroke="#0FB943" stroke-width="5" stroke-linecap="round" stroke-linejoin="round"/>
<path d="M111.847 59.5473C114.58 69.0281 113.909 79.1664 109.949 88.204C105.99 97.2416 98.9922 104.608 90.17 109.027C81.3477 113.445 71.2573 114.637 61.6486 112.395C52.0399 110.152 43.519 104.618 37.5637 96.7509C31.6083 88.8839 28.5942 79.1808 29.0439 69.3242C29.4937 59.4676 33.379 50.0792 40.026 42.7873C46.673 35.4954 55.6625 30.7599 65.4355 29.402C75.2085 28.0441 85.1485 30.1495 93.5317 35.3531" stroke="#252525" stroke-width="4" stroke-linecap="round"/>
</svg>
