<svg id="icons" xmlns="http://www.w3.org/2000/svg" viewBox="0 0 120 120"><defs><style>.cls-1{fill:#f28500;}.cls-2{fill:#fff;}.cls-3{fill:#27a3e2;}</style></defs><rect class="cls-1" x="33.71" y="7.74" width="41.78" height="7.02"/><rect class="cls-2" x="23.14" y="58.06" width="73.62" height="14.44"/><rect class="cls-2" x="23.14" y="73.55" width="73.62" height="42.58"/><path class="cls-1" d="M119.9,56.13c-.17-1.87-.23-3.76-.24-5.64a1.09,1.09,0,0,1,0-.18L60,23.23,0,50.47a32.38,32.38,0,0,1,.11,5.66H7a.7.7,0,0,1,.11-.23A3.54,3.54,0,0,1,9,54.34a1.13,1.13,0,0,1,1.15.36l1.14-.29a1.26,1.26,0,0,1-.59-2c4.36-4.55,11.47-4.89,17.11-6.54A54.65,54.65,0,0,0,38.2,41.56a62.9,62.9,0,0,1,9.7-4.71,1.1,1.1,0,0,1,1.41.86c1.75-1,3.48-2,5.23-3a9.43,9.43,0,0,1,4.63-1.46c.33-1,2-1.24,2.25,0a2.27,2.27,0,0,0,.06.3c2.37,0,4.65,1.11,6.85,2.07,7,3,14.14,5.77,21.31,8.43,3.66,1.36,7.27,2.85,10.9,4.32,2.23.9,5.17,1.19,7,2.89,1.38,1.28,2.07,3.48.52,4.7l.06.17h1.4s0,0,0-.05a1.21,1.21,0,0,1,1.18-1.21h1.38a1.22,1.22,0,0,1,1.18,1.21v.05Z"/><rect class="cls-3" x="35.64" y="90.97" width="49.36" height="17.42"/><path d="M1.9,50.32A1.87,1.87,0,0,1,.17,49.14a2,2,0,0,1,1-2.54L59.29,21.44a1.84,1.84,0,0,1,2.45,1,2,2,0,0,1-1,2.53L2.62,50.17a1.66,1.66,0,0,1-.72.15Z"/><path d="M118.12,50.32a1.69,1.69,0,0,1-.72-.15L59.29,25a2,2,0,0,1-1-2.53,1.85,1.85,0,0,1,2.46-1L118.85,46.6a2,2,0,0,1,1,2.54,1.86,1.86,0,0,1-1.73,1.18Z"/><path d="M1.9,58.06A1.87,1.87,0,0,1,.17,56.88a2,2,0,0,1,1-2.54L59.29,29.18a1.85,1.85,0,0,1,2.45,1,2,2,0,0,1-1,2.53L2.62,57.91a1.66,1.66,0,0,1-.72.15Z"/><path d="M118.12,58.06a1.69,1.69,0,0,1-.72-.15L59.29,32.75a2,2,0,0,1-1-2.53,1.85,1.85,0,0,1,2.46-1l58.11,25.16a2,2,0,0,1,1,2.54,1.86,1.86,0,0,1-1.73,1.18Z"/><path d="M1.9,58.06A1.9,1.9,0,0,1,0,56.13V48.39A1.91,1.91,0,0,1,1.9,46.45a1.91,1.91,0,0,1,1.87,1.94v7.74A1.9,1.9,0,0,1,1.9,58.06Z"/><path d="M118.12,58.06a1.9,1.9,0,0,1-1.87-1.93V48.39a1.88,1.88,0,1,1,3.75,0v7.74A1.9,1.9,0,0,1,118.12,58.06Z"/><path d="M11.27,120a1.9,1.9,0,0,1-1.87-1.94v-66a1.88,1.88,0,1,1,3.75,0v66A1.91,1.91,0,0,1,11.27,120Z"/><path d="M108.75,120a1.9,1.9,0,0,1-1.87-1.94v-66a1.88,1.88,0,1,1,3.75,0v66A1.91,1.91,0,0,1,108.75,120Z"/><path d="M118.12,120H1.9a1.94,1.94,0,0,1,0-3.87H118.12a1.94,1.94,0,0,1,0,3.87Z"/><path d="M97.5,120a1.91,1.91,0,0,1-1.87-1.94V60H24.39v58.06a1.88,1.88,0,1,1-3.75,0v-60a1.9,1.9,0,0,1,1.88-1.93h75a1.9,1.9,0,0,1,1.88,1.93v60A1.91,1.91,0,0,1,97.5,120Z"/><path d="M97.5,67.74h-75a1.94,1.94,0,0,1,0-3.87h75a1.94,1.94,0,0,1,0,3.87Z"/><path d="M97.5,75.48h-75a1.94,1.94,0,0,1,0-3.87h75a1.94,1.94,0,0,1,0,3.87Z"/><path d="M33.77,120a1.91,1.91,0,0,1-1.88-1.94v-7.74a1.88,1.88,0,1,1,3.75,0v7.74A1.91,1.91,0,0,1,33.77,120Z"/><path d="M43.14,120a1.9,1.9,0,0,1-1.87-1.94v-7.74a1.87,1.87,0,1,1,3.74,0v7.74A1.9,1.9,0,0,1,43.14,120Z"/><path d="M76.88,120A1.91,1.91,0,0,1,75,118.06v-7.74a1.88,1.88,0,1,1,3.75,0v7.74A1.91,1.91,0,0,1,76.88,120Z"/><path d="M86.26,120a1.91,1.91,0,0,1-1.88-1.94v-7.74a1.88,1.88,0,1,1,3.75,0v7.74A1.91,1.91,0,0,1,86.26,120Z"/><path d="M86.26,112.26H33.77a1.94,1.94,0,0,1,0-3.87H86.26a1.94,1.94,0,0,1,0,3.87Z"/><path d="M33.77,112.26a1.91,1.91,0,0,1-1.88-1.94V94.84a1.88,1.88,0,1,1,3.75,0v15.48A1.91,1.91,0,0,1,33.77,112.26Z"/><path d="M86.26,112.26a1.91,1.91,0,0,1-1.88-1.94V94.84a1.88,1.88,0,1,1,3.75,0v15.48A1.91,1.91,0,0,1,86.26,112.26Z"/><path d="M54.39,104.52a1.91,1.91,0,0,1-1.88-1.94v-1.93a1.88,1.88,0,1,1,3.75,0v1.93A1.91,1.91,0,0,1,54.39,104.52Z"/><path d="M60,104.52a1.9,1.9,0,0,1-1.87-1.94v-1.93a1.88,1.88,0,1,1,3.75,0v1.93A1.91,1.91,0,0,1,60,104.52Z"/><path d="M65.64,104.52a1.91,1.91,0,0,1-1.88-1.94v-1.93a1.88,1.88,0,1,1,3.75,0v1.93A1.91,1.91,0,0,1,65.64,104.52Z"/><path d="M37.52,91l-.24,0a1.92,1.92,0,0,1-1.62-2.16l1.87-15.48a1.89,1.89,0,0,1,2.09-1.68,1.92,1.92,0,0,1,1.63,2.16L39.38,89.27A1.9,1.9,0,0,1,37.52,91Z"/><path d="M82.5,91a1.89,1.89,0,0,1-1.85-1.7L78.77,73.79a1.93,1.93,0,0,1,1.63-2.16,1.89,1.89,0,0,1,2.09,1.68l1.88,15.48A1.93,1.93,0,0,1,82.74,91Z"/><path d="M48.8,104.52H42.2a4.84,4.84,0,0,1,0-9.68c2.45,0,8.08,2.47,8.42,7.28a1.76,1.76,0,0,1,.06.46A1.91,1.91,0,0,1,48.8,104.52Z"/><path class="cls-2" d="M46,100.64H42.2a1,1,0,0,1,0-1.93A7.12,7.12,0,0,1,46,100.64Z"/><path d="M77.82,104.52H71.26a1.91,1.91,0,0,1-1.88-1.94c0-5.11,5.92-7.74,8.44-7.74a4.84,4.84,0,0,1,0,9.68Z"/><path class="cls-2" d="M77.82,98.71a1,1,0,0,1,0,1.93H74A7.12,7.12,0,0,1,77.82,98.71Z"/><path d="M33.76,96.77a1.81,1.81,0,0,1-1-.32,2,2,0,0,1-.52-2.69L36,88a1.84,1.84,0,0,1,2.6-.54,2,2,0,0,1,.52,2.69l-3.75,5.8a1.86,1.86,0,0,1-1.57.86Z"/><path d="M86.26,96.78a1.84,1.84,0,0,1-1.56-.86L81,90.11a2,2,0,0,1,.52-2.69,1.84,1.84,0,0,1,2.6.54l3.75,5.81a2,2,0,0,1-.52,2.68A1.85,1.85,0,0,1,86.26,96.78Z"/><path d="M82.51,91h-45a1.94,1.94,0,0,1,0-3.87h45a1.94,1.94,0,0,1,0,3.87Z"/><path d="M86.26,83.23H81.57a1.94,1.94,0,0,1,0-3.88h4.69a1.94,1.94,0,0,1,0,3.88Z"/><path d="M38.45,83.23H33.77a1.94,1.94,0,0,1,0-3.88h4.68a1.94,1.94,0,0,1,0,3.88Z"/><path d="M86.27,23.23A11.45,11.45,0,0,1,75,11.61,11.45,11.45,0,0,1,86.27,0,11.2,11.2,0,0,1,96.41,6.62a1.93,1.93,0,0,1,.35,1.12,1.9,1.9,0,0,1-1.87,1.94H88.14a1.94,1.94,0,0,0,0,3.87h6.71a1.87,1.87,0,0,1,1.57.88,2,2,0,0,1,.15,1.83A11.26,11.26,0,0,1,86.27,23.23Z"/><path class="cls-1" d="M88.14,17.42h3.08a7.35,7.35,0,0,1-5,1.93,7.63,7.63,0,0,1-7.5-7.74,7.63,7.63,0,0,1,7.5-7.74,7.31,7.31,0,0,1,5,1.94H88.14a5.72,5.72,0,0,0-5.62,5.8A5.72,5.72,0,0,0,88.14,17.42Z"/><path d="M35.64,17.42A5.73,5.73,0,0,1,30,11.61a5.72,5.72,0,0,1,5.62-5.8,1.94,1.94,0,0,1,0,3.87,1.94,1.94,0,0,0,0,3.87,1.94,1.94,0,0,1,0,3.87Z"/><path d="M77.68,17.42h-42a1.94,1.94,0,0,1,0-3.87h42a1.94,1.94,0,0,1,0,3.87Z"/><path d="M77.68,9.68h-42a1.94,1.94,0,0,1,0-3.87h42a1.94,1.94,0,0,1,0,3.87Z"/><path d="M60,25.16a1.89,1.89,0,0,1-1.87-1.93V15.48a1.88,1.88,0,1,1,3.75,0v7.75A1.9,1.9,0,0,1,60,25.16Z"/></svg>