<svg id="Capa_1" data-name="Capa 1" xmlns="http://www.w3.org/2000/svg" viewBox="0 0 120.91 143.7"><defs><style>.cls-1{fill:#fff;}.cls-2{fill:#27a3e2;}.cls-3{fill:#f28500;}</style></defs><path d="M81.54,23.7H39.37c-5.81,0-10.54,6.31-10.54,14.06v91.88c0,7.75,4.73,14.06,10.54,14.06H81.54c5.82,0,10.55-6.31,10.55-14.06V37.76C92.09,30,87.36,23.7,81.54,23.7Zm3.52,105.94c0,2.58-1.58,4.69-3.52,4.69H39.37c-1.94,0-3.51-2.11-3.51-4.69V37.76c0-2.58,1.57-4.68,3.51-4.68h6.26l.73,2.9c.48,1.91,1.83,3.19,3.33,3.19H71.22c1.51,0,2.85-1.28,3.33-3.19l.73-2.9h6.26c1.94,0,3.52,2.1,3.52,4.68Z" transform="translate(0)"/><rect class="cls-1" x="32.07" y="26.92" width="56.78" height="113.63" rx="10.33"/><ellipse class="cls-1" cx="61.58" cy="84.13" rx="11.7" ry="11.38"/><rect x="45.53" y="24.34" width="29.85" height="8.13" rx="2.74"/><path d="M82.46,77.8a2.57,2.57,0,0,0-2.59-2.57h0a.24.24,0,0,1-.23-.18,18.2,18.2,0,0,0-1.74-4.18.29.29,0,0,1,0-.34h0a2.5,2.5,0,0,0,.75-1.8,2.61,2.61,0,0,0-.77-1.85l-3.18-3.16h0a2.58,2.58,0,0,0-3.65,0l0,.05a.22.22,0,0,1-.27,0,19.41,19.41,0,0,0-4.22-1.73.24.24,0,0,1-.19-.22v0a2.6,2.6,0,0,0-2.59-2.58h0l-4.5,0a2.5,2.5,0,0,0-1.82.77,2.55,2.55,0,0,0-.74,1.83v0a.23.23,0,0,1-.18.23,18.48,18.48,0,0,0-4.21,1.76.24.24,0,0,1-.27,0l0,0A2.49,2.49,0,0,0,50.19,63h0a2.63,2.63,0,0,0-1.85.77L45.17,67a2.59,2.59,0,0,0,0,3.65.25.25,0,0,1,.06.33,18.63,18.63,0,0,0-1.72,4.21.26.26,0,0,1-.26.18A2.59,2.59,0,0,0,40.68,78v4.48A2.59,2.59,0,0,0,43.28,85h0a.23.23,0,0,1,.25.18,18.23,18.23,0,0,0,1.76,4.2.26.26,0,0,1-.06.32,2.59,2.59,0,0,0,0,3.65l3.19,3.16a2.57,2.57,0,0,0,3.65,0,.23.23,0,0,1,.31-.06,18.93,18.93,0,0,0,4.22,1.73.24.24,0,0,1,.18.22A2.58,2.58,0,0,0,59.39,101h0l4.47,0a2.61,2.61,0,0,0,2.6-2.59v0a.26.26,0,0,1,.18-.23,18.3,18.3,0,0,0,4.21-1.76.24.24,0,0,1,.27,0,2.57,2.57,0,0,0,3.69,0L78,93.26a2.59,2.59,0,0,0,0-3.65h0a.29.29,0,0,1,0-.34,18.67,18.67,0,0,0,1.72-4.19.24.24,0,0,1,.23-.19,2.56,2.56,0,0,0,1.88-.79,2.7,2.7,0,0,0,.72-1.85Z" transform="translate(0)"/><path class="cls-2" d="M49.2,64.68a1.4,1.4,0,0,1,1-.41,1.27,1.27,0,0,1,.93.38l.08.08a1.45,1.45,0,0,0,1.71.18,17.57,17.57,0,0,1,3.93-1.64,1.48,1.48,0,0,0,1.08-1.39v-.05a1.3,1.3,0,0,1,.38-1,1.41,1.41,0,0,1,1-.41h4.49a1.36,1.36,0,0,1,1.35,1.36v0a1.47,1.47,0,0,0,1.08,1.38,17.62,17.62,0,0,1,4,1.61,1.45,1.45,0,0,0,1.79-.27,1.35,1.35,0,0,1,1.91,0L77,67.75a1.38,1.38,0,0,1,.4,1,1.27,1.27,0,0,1-.38.93,2.6,2.6,0,0,0-.3.36,1.18,1.18,0,0,0,0,1.29,16.46,16.46,0,0,1,1.73,4.07,1.47,1.47,0,0,0,1.38,1.08,1.35,1.35,0,0,1,1.42,1.35V82.3a1.36,1.36,0,0,1-1.4,1.37,1.47,1.47,0,0,0-1.38,1.08A16.33,16.33,0,0,1,76.68,89c-.27.45-.09.93.45,1.5a1.37,1.37,0,0,1,0,1.91L74,95.58A1.4,1.4,0,0,1,73,96a1.35,1.35,0,0,1-1-.47,1.44,1.44,0,0,0-1.71-.18A16.93,16.93,0,0,1,66.32,97a1.49,1.49,0,0,0-1.07,1.39,1.39,1.39,0,0,1-1.38,1.42H59.4A1.35,1.35,0,0,1,58,98.4,1.47,1.47,0,0,0,57,97,17.58,17.58,0,0,1,53,95.4a1.44,1.44,0,0,0-1.79.28,1.36,1.36,0,0,1-1.91,0L46.13,92.5a1.36,1.36,0,0,1,0-2,1.48,1.48,0,0,0,.22-1.75,17.57,17.57,0,0,1-1.64-3.93,1.48,1.48,0,0,0-1.44-1.07,1.36,1.36,0,0,1-1.36-1.36l0-4.48a1.37,1.37,0,0,1,1.36-1.37h0a1.5,1.5,0,0,0,1.42-1.09,17,17,0,0,1,1.61-3.93,1.49,1.49,0,0,0-.27-1.8,1.36,1.36,0,0,1,0-1.91Z" transform="translate(0)"/><path d="M61.58,67.52A12.61,12.61,0,1,0,74.19,80.13,12.62,12.62,0,0,0,61.58,67.52Zm0,24A11.39,11.39,0,1,1,73,80.13,11.4,11.4,0,0,1,61.58,91.51Z" transform="translate(0)"/><path d="M68.61,73.79a2.22,2.22,0,0,0-1.61-.5,2.15,2.15,0,0,0-1.48.78L59,81.88l-2.24-2.3a2.12,2.12,0,0,0-1.54-.66A2.19,2.19,0,0,0,53,81.08a2.14,2.14,0,0,0,.62,1.55l3.93,4.05a2.2,2.2,0,0,0,1.57.66h.08a2.18,2.18,0,0,0,1.6-.79l8.08-9.67a2.2,2.2,0,0,0-.27-3.09Z" transform="translate(0)"/><path class="cls-1" d="M67.82,74.73a1,1,0,0,1,.12,1.36l-8.08,9.68a.95.95,0,0,1-1.43,0l-3.93-4a.93.93,0,0,1-.27-.69.94.94,0,0,1,.29-.68,1,1,0,0,1,.67-.27h0a1,1,0,0,1,.68.29l2.7,2.79a.61.61,0,0,0,.46.18.56.56,0,0,0,.45-.22l7-8.33a1,1,0,0,1,.65-.34A1,1,0,0,1,67.82,74.73Z" transform="translate(0)"/><path d="M70.49,91A14,14,0,0,1,50.72,71.21a.61.61,0,0,0-.08-.86.62.62,0,0,0-.86.09A15.27,15.27,0,0,0,71.27,91.93a.62.62,0,0,0,.08-.87.61.61,0,0,0-.86-.08Z" transform="translate(0)"/><path d="M61.58,64.86a15.27,15.27,0,0,0-9.69,3.47.61.61,0,1,0,.77.94A14,14,0,0,1,72.43,89a.61.61,0,0,0,.09.86.62.62,0,0,0,.38.14.64.64,0,0,0,.48-.22,15.27,15.27,0,0,0-11.8-25Z" transform="translate(0)"/><path class="cls-3" d="M95.7,14.91a1.9,1.9,0,0,0-1.57,3.45,11.27,11.27,0,0,1,5.61,14.89,1.89,1.89,0,0,0,3.45,1.56,15,15,0,0,0-7.49-19.9Z" transform="translate(0)"/><path class="cls-3" d="M99,7.54A1.9,1.9,0,0,0,97.47,11a19.36,19.36,0,0,1,9.64,25.59,1.9,1.9,0,1,0,3.45,1.57A23.16,23.16,0,0,0,99,7.54Z" transform="translate(0)"/><path class="cls-3" d="M102.37.17a1.89,1.89,0,1,0-1.56,3.45c14.24,6.45,20.12,22.06,13.67,36.3a1.89,1.89,0,1,0,3.45,1.56c7.37-16.27.68-34-15.56-41.31Z" transform="translate(0)"/><path class="cls-3" d="M25.21,14.91a15.05,15.05,0,0,0-7.49,19.9,1.89,1.89,0,0,0,3.45-1.56,11.27,11.27,0,0,1,5.61-14.89,1.9,1.9,0,1,0-1.57-3.45Z" transform="translate(0)"/><path class="cls-3" d="M10.35,38.15a1.9,1.9,0,0,0,3.46-1.57A19.36,19.36,0,0,1,23.44,11a1.89,1.89,0,1,0-1.56-3.45A23.15,23.15,0,0,0,10.35,38.15Z" transform="translate(0)"/><path class="cls-3" d="M18.54.17C2.31,7.52-4.39,25.21,3,41.48a1.9,1.9,0,0,0,3.46-1.56C0,25.68,5.86,10.07,20.11,3.62A1.9,1.9,0,0,0,18.54.17Z" transform="translate(0)"/></svg>