<svg id="Layer_1" data-name="Layer 1" xmlns="http://www.w3.org/2000/svg" viewBox="0 0 120 120"><defs><style>.cls-1{fill:#f28500;}.cls-2{fill:#27a3e2;}</style></defs><path d="M118,49.6h-9.42a2.08,2.08,0,0,0-2,2.12v2.11h-.58a2.05,2.05,0,0,0-2,1.52l-.92,3.23L95.63,38.4a10.46,10.46,0,0,0-9.69-6.92H78a46.73,46.73,0,0,0,1.9-6A63.38,63.38,0,0,0,81.62,9.51a2.1,2.1,0,0,0-1.42-2C71,4.51,64.09,1.62,60.79.17a1.92,1.92,0,0,0-1.59,0C55.9,1.62,49,4.52,39.79,7.54a2.11,2.11,0,0,0-1.42,2,62.93,62.93,0,0,0,1.69,16,48.45,48.45,0,0,0,1.89,6H34.06a10.47,10.47,0,0,0-9.69,6.92L16.94,58.58,16,55.35a2,2,0,0,0-1.95-1.52h-.58V51.72a2.08,2.08,0,0,0-2-2.12H2a2.08,2.08,0,0,0-2,2.12v7.7a2.08,2.08,0,0,0,2,2.12h9.42a2.06,2.06,0,0,0,1.78-1.1l1.27,4.48-7.35,14s0,0,0,.06a2.09,2.09,0,0,0-.23,1V99.29a6.16,6.16,0,0,0,5.65,6.23v7A7.4,7.4,0,0,0,19.8,120h8A7.39,7.39,0,0,0,35,112.47v-6.91H85v6.91A7.39,7.39,0,0,0,92.19,120h8a7.39,7.39,0,0,0,7.24-7.53v-7a6.17,6.17,0,0,0,5.66-6.23V79.93a2,2,0,0,0-.24-1s0,0,0,0l-7.35-14,1.27-4.48a2,2,0,0,0,1.78,1.09H118a2.08,2.08,0,0,0,2-2.11h0V51.71A2.08,2.08,0,0,0,118,49.6ZM9.42,57.3H4.07V53.83H9.42Zm2.94,20.52L17.9,67.27h84.2l5.53,10.55Zm77.84-22H29.79L34.52,43H49.13A28.92,28.92,0,0,0,59.27,49.7a1.94,1.94,0,0,0,1.46,0A29,29,0,0,0,70.86,43H85.47Zm-62-15.89a6.36,6.36,0,0,1,5.89-4.2h9.82a31.82,31.82,0,0,0,1.82,3H34.06A3.4,3.4,0,0,0,30.89,41l-6,16.15a2.14,2.14,0,0,0,1.17,2.73,1.86,1.86,0,0,0,.73.14H93.16a2.07,2.07,0,0,0,2-2.11,2.22,2.22,0,0,0-.14-.76L89.11,41a3.43,3.43,0,0,0-3.17-2.26H74.3a31.82,31.82,0,0,0,1.82-3h9.82a6.35,6.35,0,0,1,5.88,4.2L100.34,63H19.65ZM31,112.47a3.25,3.25,0,0,1-3.18,3.3h-8a3.25,3.25,0,0,1-3.18-3.3v-6.91H31Zm69.22,3.3h-8a3.24,3.24,0,0,1-3.17-3.3v-6.91h14.35v6.91a3.24,3.24,0,0,1-3.17,3.3ZM109,99.29a2,2,0,0,1-2,2H12.94a2,2,0,0,1-2-2V82.05h5.66a9.33,9.33,0,0,0,2.66,12.6,8.58,8.58,0,0,0,12.13-2.77,9.4,9.4,0,0,0,0-9.83H39.8l2.12,6.4a2.05,2.05,0,0,0,1.92,1.44H76.16a2.06,2.06,0,0,0,1.93-1.43l2.11-6.41h8.38a9.35,9.35,0,0,0,2.67,12.61,8.59,8.59,0,0,0,12.12-2.77,9.42,9.42,0,0,0,0-9.84H109Zm6.9-42h-5.35V53.83h5.35Z"/><path class="cls-1" d="M96,82.05a4.9,4.9,0,1,1-4.71,4.89A4.8,4.8,0,0,1,96,82.05Z"/><polygon class="cls-1" points="75.89 82.05 74.7 85.65 45.29 85.65 44.1 82.05 75.89 82.05"/><path class="cls-1" d="M24,82.05a4.9,4.9,0,1,1-4.71,4.89A4.8,4.8,0,0,1,24,82.05Z"/><path class="cls-2" d="M77.56,11.09A59.08,59.08,0,0,1,76,24.41c-2.56,10.47-7.94,17.54-16,21-8.06-3.49-13.44-10.56-16-21a59.08,59.08,0,0,1-1.57-13.32C50.43,8.41,56.58,5.88,60,4.4,63.41,5.88,69.57,8.41,77.56,11.09Z"/><path class="cls-1" d="M56.1,30a2,2,0,0,0,1.46.63h0A2,2,0,0,0,59,30l9.72-10.32a2.17,2.17,0,0,0,0-3,2,2,0,0,0-2.87,0l0,0-8.27,8.77-3.39-3.61a2,2,0,0,0-2.87-.15,2.16,2.16,0,0,0-.16,3l.12.13Z"/></svg>