<svg id="Capa_1" data-name="Capa 1" xmlns="http://www.w3.org/2000/svg" viewBox="0 0 63.26 120"><defs><style>.cls-1{fill:#fff;}.cls-2{fill:#27a3e2;}.cls-3{fill:#f28500;}</style></defs><path d="M52.72,0H10.54C4.73,0,0,6.31,0,14.06v91.88C0,113.69,4.73,120,10.54,120H52.72c5.81,0,10.54-6.31,10.54-14.06V14.06C63.26,6.31,58.53,0,52.72,0Zm3.51,105.94c0,2.58-1.58,4.68-3.51,4.68H10.54c-1.93,0-3.51-2.1-3.51-4.68V14.06c0-2.58,1.58-4.68,3.51-4.68H16.8l.74,2.9c.48,1.9,1.82,3.19,3.33,3.19H42.39c1.51,0,2.85-1.29,3.33-3.19l.74-2.9h6.26c1.93,0,3.51,2.1,3.51,4.68Z"/><rect class="cls-1" x="3.24" y="3.22" width="56.78" height="113.63" rx="10.33"/><ellipse class="cls-1" cx="32.75" cy="60.42" rx="11.7" ry="11.38"/><rect x="16.7" y="0.64" width="29.85" height="8.13" rx="2.74"/><path class="cls-2" d="M27.55,35.8H54.24a.87.87,0,0,0,0-1.74H27.55a.87.87,0,1,0,0,1.74Z"/><path class="cls-2" d="M54.24,38.37H27.55a.87.87,0,0,0,0,1.74H54.24a.87.87,0,1,0,0-1.74Z"/><path class="cls-2" d="M27.55,44.42H45.66a.87.87,0,0,0,0-1.74H27.55a.87.87,0,1,0,0,1.74Z"/><path class="cls-2" d="M54.24,54.82H27.55a.87.87,0,1,0,0,1.74H54.24a.87.87,0,0,0,0-1.74Z"/><path class="cls-2" d="M54.24,59.13H27.55a.87.87,0,0,0,0,1.74H54.24a.87.87,0,0,0,0-1.74Z"/><path class="cls-2" d="M27.55,65.18H45.66a.87.87,0,0,0,0-1.74H27.55a.87.87,0,1,0,0,1.74Z"/><path d="M23.37,73.11a2.42,2.42,0,0,0-3.44.22l-.44.5A9,9,0,1,0,22.34,78l1.25-1.43a2.42,2.42,0,0,0-.22-3.44ZM13.85,88a7.21,7.21,0,1,1,4.49-12.83l-3.68,4.19-1.32-1.54a2.39,2.39,0,0,0-1.66-.85,2.45,2.45,0,0,0-2,4l3.15,3.67a2.46,2.46,0,0,0,1.84.86h0a2.46,2.46,0,0,0,1.83-.83L21,79.56a6.78,6.78,0,0,1,.1,1.2,7.21,7.21,0,0,1-7.2,7.2Z"/><path class="cls-3" d="M22.23,74.41a.76.76,0,0,1,.24.49.71.71,0,0,1-.18.51l-7.12,8.1a.73.73,0,0,1-.53.24h0a.7.7,0,0,1-.53-.25L11,79.83a.72.72,0,0,1,.08-1,.71.71,0,0,1,.46-.17h0a.68.68,0,0,1,.48.24l2,2.3a.89.89,0,0,0,.66.3.84.84,0,0,0,.66-.29l5.92-6.74a.68.68,0,0,1,.49-.24A.73.73,0,0,1,22.23,74.41Z"/><path class="cls-2" d="M54.24,75.58H27.55a.87.87,0,0,0,0,1.74H54.24a.87.87,0,0,0,0-1.74Z"/><path class="cls-2" d="M54.24,79.89H27.55a.87.87,0,0,0,0,1.74H54.24a.87.87,0,0,0,0-1.74Z"/><path class="cls-2" d="M45.66,84.2H27.55a.87.87,0,1,0,0,1.74H45.66a.87.87,0,0,0,0-1.74Z"/><path d="M23.37,31.59A2.42,2.42,0,0,0,21.61,31a2.45,2.45,0,0,0-1.68.83l-.44.5a8.94,8.94,0,0,0-11.62.28A.87.87,0,0,0,9,33.89a7.19,7.19,0,0,1,9.31-.27L14.66,37.8l-1.32-1.54a2.41,2.41,0,0,0-1.67-.85A2.44,2.44,0,0,0,9.9,36a2.46,2.46,0,0,0-.27,3.45l3.15,3.67a2.46,2.46,0,0,0,1.84.86h0a2.42,2.42,0,0,0,1.83-.83L21,38a6.78,6.78,0,0,1,.1,1.2,7.2,7.2,0,1,1-14-2.48.87.87,0,0,0-1.64-.59,8.86,8.86,0,0,0-.54,3.07,8.94,8.94,0,0,0,17.88,0,8.8,8.8,0,0,0-.45-2.78L23.59,35a2.43,2.43,0,0,0-.22-3.45Z"/><path class="cls-3" d="M22.47,33.38a.7.7,0,0,1-.18.51L15.17,42a.73.73,0,0,1-.53.24h0A.7.7,0,0,1,14.1,42L11,38.31a.72.72,0,0,1,.08-1,.71.71,0,0,1,.46-.17h0a.68.68,0,0,1,.48.24l2,2.3a.94.94,0,0,0,.66.31.93.93,0,0,0,.66-.3L21.23,33a.72.72,0,0,1,.49-.24.73.73,0,0,1,.51.17A.76.76,0,0,1,22.47,33.38Z"/><path d="M23.37,52.35a2.42,2.42,0,0,0-1.76-.61,2.45,2.45,0,0,0-1.68.83l-.44.5a8.94,8.94,0,0,0-11.62.28A.87.87,0,0,0,9,54.65a7.19,7.19,0,0,1,9.31-.27l-3.68,4.18L13.34,57a2.41,2.41,0,0,0-1.67-.85,2.44,2.44,0,0,0-1.77.58,2.46,2.46,0,0,0-.27,3.45l3.15,3.67a2.46,2.46,0,0,0,1.84.86h0a2.46,2.46,0,0,0,1.83-.83L21,58.8a6.78,6.78,0,0,1,.1,1.2,7.2,7.2,0,1,1-14-2.48.87.87,0,0,0-1.64-.6A8.94,8.94,0,1,0,22.79,60a8.8,8.8,0,0,0-.45-2.78l1.25-1.43A2.38,2.38,0,0,0,24.2,54,2.41,2.41,0,0,0,23.37,52.35Z"/><path class="cls-3" d="M22.23,53.65a.72.72,0,0,1,.24.49.7.7,0,0,1-.18.51l-7.12,8.1a.7.7,0,0,1-.53.24.67.67,0,0,1-.53-.25L11,59.07a.7.7,0,0,1,.53-1.17h.06a.72.72,0,0,1,.48.24l2,2.3a.85.85,0,0,0,.65.3.86.86,0,0,0,.66-.29l5.93-6.74a.64.64,0,0,1,.48-.24A.72.72,0,0,1,22.23,53.65Z"/></svg>