<svg id="Capa_1" data-name="Capa 1" xmlns="http://www.w3.org/2000/svg" viewBox="0 0 81.25 120"><defs><style>.cls-1{fill:#27a3e2;}.cls-2{fill:#fff;}.cls-3{fill:#f28500;}</style></defs><path class="cls-1" d="M80.71,52.07a36.08,36.08,0,0,1,.45-4c0-.17,0-.34,0-.49,0-1.19-.09-2.38-.15-3.57a13.7,13.7,0,0,1-2.09-3.44c-.05-.14-.1-.27-.14-.42L63.44,55.75,78.5,71.81c.16-.38.32-.75.45-1.14a58.08,58.08,0,0,0,2-6.8,3.29,3.29,0,0,1,.22-.69l.07-5.67a2.8,2.8,0,0,1-.09-.59C81.06,55.29,80.66,53.71,80.71,52.07Z"/><path d="M52.72,0H10.54C4.73,0,0,6.31,0,14.06v91.88C0,113.69,4.73,120,10.54,120H52.72c5.81,0,10.54-6.31,10.54-14.06V14.06C63.26,6.31,58.53,0,52.72,0Zm3.51,105.94c0,2.58-1.58,4.68-3.51,4.68H10.54c-1.93,0-3.51-2.1-3.51-4.68V14.06c0-2.58,1.58-4.68,3.51-4.68H16.8l.74,2.9c.48,1.9,1.82,3.19,3.33,3.19H42.39c1.51,0,2.85-1.29,3.33-3.19l.74-2.9h6.26c1.93,0,3.51,2.1,3.51,4.68Z"/><rect class="cls-2" x="3.24" y="3.22" width="56.78" height="113.63" rx="10.33"/><ellipse class="cls-2" cx="32.75" cy="60.42" rx="11.7" ry="11.38"/><rect x="16.7" y="0.64" width="29.85" height="8.13" rx="2.74"/><path d="M80.26,47h0a1,1,0,0,0-1,1V65a8,8,0,0,1-1.54,4.69l-13-14.18,13-14.19a8,8,0,0,1,1.34,2.94A1,1,0,1,0,81,43.86a9.91,9.91,0,0,0-8.8-7.68h0c-.32,0-.63-.05-.95-.05a6.59,6.59,0,0,1-.77,0h-1.9a18.06,18.06,0,0,1-2.44,0H44.57a9.92,9.92,0,0,0-9.92,9.91V65A9.93,9.93,0,0,0,44.57,75h5.29L54.93,80a4.27,4.27,0,0,0,6,0L66,75h.31a2.77,2.77,0,0,1,.46-.06q.57,0,1.17,0c1.51-.12,3.19.12,4.53,0h.19A9.94,9.94,0,0,0,81.25,65V48A1,1,0,0,0,80.26,47Z"/><path class="cls-1" d="M38.17,41.36l13,14.19-13,14.18A8,8,0,0,1,36.63,65v-19A8,8,0,0,1,38.17,41.36Z"/><path class="cls-1" d="M63.41,57l13,14.16a7.86,7.86,0,0,1-5,1.8H65.63a1,1,0,0,0-.7.29l-5.36,5.37a2.29,2.29,0,0,1-1.62.66,2.24,2.24,0,0,1-1.62-.67L51,73.26a1,1,0,0,0-.7-.29h-5.7a7.87,7.87,0,0,1-5-1.8L52.49,57l1.63,1.8A5.23,5.23,0,0,0,58,60.5h0a5.23,5.23,0,0,0,3.82-1.69Z"/><path class="cls-1" d="M76.36,39.92l-13.68,15-2.37,2.59a3.2,3.2,0,0,1-4.72,0L39.54,39.92a7.92,7.92,0,0,1,5-1.8H71.34a7.87,7.87,0,0,1,5,1.76Z"/><path d="M65.26,41.79a1.9,1.9,0,0,0-1.36-.42,1.84,1.84,0,0,0-1.25.66l-5.52,6.61-1.89-2a1.86,1.86,0,0,0-2.63,0,1.87,1.87,0,0,0-.56,1.3,1.82,1.82,0,0,0,.53,1.32L55.9,52.7a1.85,1.85,0,0,0,1.33.56h.07a1.85,1.85,0,0,0,1.35-.66l6.84-8.19a1.87,1.87,0,0,0-.23-2.62Z"/><path class="cls-3" d="M64.59,42.59a.81.81,0,0,1,.1,1.15l-6.83,8.19a.87.87,0,0,1-.6.3.86.86,0,0,1-.61-.25l-3.33-3.42a.81.81,0,0,1-.23-.59.82.82,0,0,1,.81-.8h0a.86.86,0,0,1,.58.24l2.28,2.36a.49.49,0,0,0,.39.16.47.47,0,0,0,.38-.19l5.89-7.05A.85.85,0,0,1,64,42.4.86.86,0,0,1,64.59,42.59Z"/></svg>